# xmcd CD database file
#
# Track frame offsets:
#	150
#	23179
#	50454
#	91239
#	133543
#	165581
#	182808
#	216566
#
# Disc length: 2974 seconds
#
# Revision: 0
# Processed by: cddbd v1.5.2PL0 Copyright (c) Steve Scherf et al.
# Submitted via: CDex 1.70beta2
#
DISCID=6b0b9c08
DTITLE=Joe Bonamassa - Live at Tolbert Theater @ Stage Center, Oklahoma City, OK. USA - 12 mai 2007 [CD1/2)
DYEAR=2007
DGENRE=Blues
TTITLE0=Bridge To Better Days
TTITLE1=Walk In My Shadows
TTITLE2=Blues Deluxe
TTITLE3=Mountain Time
TTITLE4=Burning Hell
TTITLE5=Another Kind Of Love
TTITLE6=Sloe Gin
TTITLE7=(banter)
EXTD=YEAR: 2007
EXTT0=
EXTT1=
EXTT2=
EXTT3=
EXTT4=
EXTT5=
EXTT6=
EXTT7=
PLAYORDER=
